# xmcd
#
# Track frame offsets: 
#        150
#        10135
#        18695
#        31137
#        41820
#        56330
#        68632
#        80817
#        91412
#        102572
#        113897
#        126235
#        134297
#        145937
#        155390
#        163737
#        173915
#        183612
#        193685
#        205210
#        218045
#        226320
#        234535
#        246222
#        256232
#        268455
#        280650
#
# Disc length: 3884 seconds
#
# Revision: 5
# Processed by: cddbd v1.5.2PL0 Copyright (c) Steve Scherf et al.
# Submitted via: ExactAudioCopy v1.3
#
DISCID=8d0f2a1b
DTITLE=Chuck Berry - The Chess Box Disc 2
DYEAR=1988
DGENRE=Rock and Roll
TTITLE0=Memphis
TTITLE1=Anthony Boy
TTITLE2=Jo Jo Gunne
TTITLE3=Sweet Little Rock 'n' Roller
TTITLE4=Merry Christmas Baby
TTITLE5=Run Rudolph Run
TTITLE6=Little Queenie
TTITLE7=Almost Grown
TTITLE8=Back In The U.S.A.
TTITLE9=Betty Jean
TTITLE10=Childhood Sweetheart
TTITLE11=Let It Rock
TTITLE12=To Pooped To Pop
TTITLE13=Bye Bye Johnny
TTITLE14=Jaguar And Thunderbird
TTITLE15=Down The Road Apiece
TTITLE16=Confessin' The Blues
TTITLE17=Thirteen Question Method
TTITLE18=Crying Steel
TTITLE19=I'm Just A Lucky So And So
TTITLE20=I'm Talking About You
TTITLE21=Come On
TTITLE22=Nadine (Is It You)
TTITLE23=Crazy Arms
TTITLE24=You Never Can Tell
TTITLE25=The Things You Used To Do
TTITLE26=Promised Land
EXTD=
EXTT0=
EXTT1=
EXTT2=
EXTT3=
EXTT4=
EXTT5=
EXTT6=
EXTT7=
EXTT8=
EXTT9=
EXTT10=
EXTT11=
EXTT12=
EXTT13=
EXTT14=
EXTT15=
EXTT16=
EXTT17=
EXTT18=
EXTT19=
EXTT20=
EXTT21=
EXTT22=
EXTT23=
EXTT24=
EXTT25=
EXTT26=
PLAYORDER=
